<svg aria-hidden="true" style="position: absolute; width: 0; height: 0; overflow: hidden;" version="1.1" xmlns="http://www.w3.org/2000/svg" xmlns:xlink="http://www.w3.org/1999/xlink">
<defs>
<symbol id="icon-library_add" viewBox="0 0 24 24">
<path d="M18.984 11.016v-2.016h-3.984v-3.984h-2.016v3.984h-3.984v2.016h3.984v3.984h2.016v-3.984h3.984zM20.016 2.016q0.797 0 1.383 0.586t0.586 1.383v12q0 0.797-0.586 1.406t-1.383 0.609h-12q-0.797 0-1.406-0.609t-0.609-1.406v-12q0-0.797 0.609-1.383t1.406-0.586h12zM3.984 6v14.016h14.016v1.969h-14.016q-0.797 0-1.383-0.586t-0.586-1.383v-14.016h1.969z"></path>
</symbol>
<symbol id="icon-queue_music" viewBox="0 0 24 24">
<path d="M17.016 6h4.969v2.016h-3v9q0 1.219-0.891 2.109t-2.109 0.891-2.109-0.891-0.891-2.109 0.891-2.109 2.109-0.891q0.375 0 1.031 0.188v-8.203zM3 15.984v-1.969h8.016v1.969h-8.016zM15 9.984v2.016h-12v-2.016h12zM15 6v2.016h-12v-2.016h12z"></path>
</symbol>
<symbol id="icon-computer" viewBox="0 0 24 24">
<path d="M3.984 6v9.984h16.031v-9.984h-16.031zM20.016 18h3.984v2.016h-24v-2.016h3.984q-0.797 0-1.383-0.609t-0.586-1.406v-9.984q0-0.797 0.586-1.406t1.383-0.609h16.031q0.797 0 1.383 0.609t0.586 1.406v9.984q0 0.797-0.586 1.406t-1.383 0.609z"></path>
</symbol>
<symbol id="icon-hotel" viewBox="0 0 24 24">
<path d="M18.984 6.984q1.641 0 2.836 1.195t1.195 2.836v9h-2.016v-3h-18v3h-2.016v-15h2.016v9h8.016v-7.031h7.969zM6.984 12.984q-1.219 0-2.109-0.891t-0.891-2.109 0.891-2.109 2.109-0.891 2.109 0.891 0.891 2.109-0.891 2.109-2.109 0.891z"></path>
</symbol>
<symbol id="icon-home" viewBox="0 0 24 24">
<path d="M9.984 20.016h-4.969v-8.016h-3l9.984-9 9.984 9h-3v8.016h-4.969v-6h-4.031v6z"></path>
</symbol>
<symbol id="icon-sports_soccer" viewBox="0 0 24 24">
<path d="M18.047 17.203q1.969-2.25 1.969-5.203 0-0.094-0.023-0.188t-0.023-0.141l-0.984-0.75-1.406 0.469-1.453 4.359 0.797 1.359zM14.25 15l1.359-4.031-3.609-2.531-3.609 2.531 1.359 4.031h4.5zM14.484 19.594l0.703-1.5-0.609-1.078h-5.109l-0.656 1.078 0.703 1.5q1.172 0.422 2.484 0.422t2.484-0.422zM7.078 17.109l0.797-1.359-1.453-4.359-1.406-0.469-0.984 0.75q0 0.047-0.023 0.141t-0.023 0.188q0 1.219 0.586 2.742t1.383 2.461zM9.656 4.359q-1.172 0.328-2.461 1.313t-1.945 2.016l0.422 1.359 1.359 0.422 3.984-2.766v-1.406zM12.984 5.297v1.406l3.984 2.766 1.359-0.422 0.422-1.359q-0.656-1.031-1.945-2.016t-2.461-1.313zM12 2.016q4.125 0 7.055 2.93t2.93 7.055-2.93 7.055-7.055 2.93-7.055-2.93-2.93-7.055 2.93-7.055 7.055-2.93z"></path>
</symbol>
<symbol id="icon-single_bed" viewBox="0 0 24 24">
<path d="M6 12v3h12v-3h-12zM8.016 6.984v3h3v-3h-3zM15.984 9.984v-3h-3v3h3zM20.016 12v5.016h-1.359l-0.656 1.969h-0.984l-0.656-1.969h-8.672l-0.703 1.969h-0.984l-0.656-1.969h-1.359v-5.016q0-0.797 0.609-1.406t1.406-0.609v-3q0-0.797 0.609-1.383t1.406-0.586h7.969q0.797 0 1.406 0.586t0.609 1.383v3q0.797 0 1.406 0.609t0.609 1.406z"></path>
</symbol>
<symbol id="icon-lunch_dining" viewBox="0 0 24 24">
<path d="M2.016 15.984h19.969v2.016q0 0.797-0.586 1.406t-1.383 0.609h-16.031q-0.797 0-1.383-0.609t-0.586-1.406v-2.016zM5.344 13.5q-0.516 0-1.125 0.375-1.031 0.609-2.203 0.609v-1.969q0.516 0 1.125-0.375 1.078-0.656 2.203-0.656 1.078 0 2.156 0.656 0.609 0.375 1.172 0.375 0.516 0 1.125-0.375 1.078-0.656 2.203-0.656 1.078 0 2.156 0.656 0.609 0.375 1.172 0.375 0.516 0 1.125-0.375 1.078-0.656 2.203-0.656 1.078 0 2.156 0.656l1.172 0.375v1.969q-1.125 0-2.156-0.609-0.609-0.375-1.172-0.375-0.516 0-1.125 0.375-1.031 0.609-2.203 0.609-1.125 0-2.156-0.609-0.609-0.375-1.172-0.375-0.516 0-1.125 0.375-1.031 0.609-2.203 0.609-1.125 0-2.156-0.609-0.609-0.375-1.172-0.375zM21.984 9.984h-19.969q-0.234-2.438 2.719-4.219t7.266-1.781 7.266 1.781 2.719 4.219z"></path>
</symbol>
<symbol id="icon-child_friendly" viewBox="0 0 24 24">
<path d="M17.016 20.016q0.609 0 1.055-0.445t0.445-1.055-0.445-1.055-1.055-0.445-1.055 0.445-0.445 1.055 0.445 1.055 1.055 0.445zM8.016 20.016q0.609 0 1.055-0.445t0.445-1.055-0.445-1.055-1.055-0.445-1.055 0.445-0.445 1.055 0.445 1.055 1.055 0.445zM19.313 15.891q1.172 1.078 1.172 2.625 0 1.453-1.008 2.461t-2.461 1.008q-1.313 0-2.297-0.867t-1.172-2.133h-2.109q-0.188 1.266-1.148 2.133t-2.273 0.867q-1.453 0-2.484-1.008t-1.031-2.461q0-2.063 1.828-3.094l-2.109-4.406h-2.203v-2.016h3.469l0.938 2.016h14.578q0 1.125-0.492 2.555t-1.195 2.32zM12.984 2.016q3.328 0 5.672 2.344t2.344 5.625h-8.016v-7.969z"></path>
</symbol>
<symbol id="icon-checkroom" viewBox="0 0 24 24">
<path d="M21.609 18.188l-8.625-6.422v-0.938q0.844-0.234 1.453-0.844t0.891-1.43 0.094-1.758q-0.188-0.984-0.914-1.734t-1.711-0.984q-1.125-0.234-2.109 0.164t-1.594 1.289-0.609 1.969h2.016q0-0.609 0.445-1.055t1.055-0.445 1.055 0.445 0.445 1.055-0.445 1.055-1.102 0.445q-0.375 0-0.656 0.281t-0.281 0.703v1.781l-8.625 6.422q-0.375 0.281-0.398 0.727t0.258 0.773 0.75 0.328h18q0.469 0 0.75-0.328t0.258-0.773-0.398-0.727zM6 18l6-4.5 6 4.5h-12z"></path>
</symbol>
<symbol id="icon-pest_control_rodent" viewBox="0 0 24 24">
<path d="M21.328 17.391l-2.391-2.156q0.234-1.172-0.211-2.133t-1.313-1.523-1.898-0.563q-0.469 0-1.055 0.164t-1.148 0.586-0.938 1.102-0.375 1.617q0 0.75 0.281 1.383t0.75 1.102l-0.703 0.703q-0.609-0.609-0.961-1.43t-0.352-1.758q0-1.266 0.656-2.297t1.688-1.641q-1.125-0.563-2.297-0.563t-2.203 0.516-1.734 1.383-0.984 1.992q-0.938-0.281-1.547-1.078t-0.609-1.781q0-0.844 0.422-1.523t1.102-1.078 1.477-0.398h2.531q1.031 0 1.758-0.75t0.727-1.781-0.727-1.758-1.758-0.727h-1.5q-0.422 0-0.727 0.305t-0.305 0.68q0 0.422 0.305 0.727t0.727 0.305h1.5q0.188 0 0.328 0.141t0.141 0.328q0 0.234-0.141 0.375t-0.328 0.141h-2.531q-1.359 0-2.508 0.68t-1.805 1.805-0.656 2.531q0 1.172 0.516 2.203t1.43 1.734 2.039 0.938v0.047q0 1.406 0.68 2.555t1.828 1.828 2.555 0.68h8.859q0.703 0 1.195-0.375t0.727-0.961 0.117-1.195-0.633-1.078zM18 18.984q-0.422 0-0.703-0.281t-0.281-0.703 0.281-0.703 0.703-0.281 0.703 0.281 0.281 0.703-0.281 0.703-0.703 0.281z"></path>
</symbol>
</defs>
</svg>
